<?xml version="1.0" standalone="no"?><!DOCTYPE svg PUBLIC "-//W3C//DTD SVG 1.1//EN" "http://www.w3.org/Graphics/SVG/1.1/DTD/svg11.dtd"><svg t="1559886000753" class="icon" style="" viewBox="0 0 1024 1024" version="1.1" xmlns="http://www.w3.org/2000/svg" p-id="2817" xmlns:xlink="http://www.w3.org/1999/xlink" width="200" height="200"><defs><style type="text/css"></style></defs><path d="M869.885993 64.021106 153.526629 64.021106c-49.455365 0-89.544409 40.09109-89.544409 89.544409l0 716.359364c0 49.455365 40.090067 89.544409 89.544409 89.544409L869.885993 959.469288c49.453319 0 89.544409-40.090067 89.544409-89.544409L959.430402 153.565515C959.430402 104.112196 919.339312 64.021106 869.885993 64.021106zM882.864586 322.343499l-414.122809 414.101319c-8.744151 8.744151-20.200064 13.116739-31.655977 13.116739s-22.910802-4.372587-31.655977-13.116739L159.203932 490.240417c-17.489326-17.489326-17.489326-45.821605 0-63.310931s45.821605-17.489326 63.310931 0l214.570937 214.549447L819.553655 259.032568c17.489326-17.489326 45.821605-17.489326 63.310931 0C900.353912 276.521894 900.353912 304.854173 882.864586 322.343499z" p-id="2818" fill="#1296db"></path></svg>