<?xml version="1.0" standalone="no"?><!DOCTYPE svg PUBLIC "-//W3C//DTD SVG 1.1//EN" "http://www.w3.org/Graphics/SVG/1.1/DTD/svg11.dtd"><svg t="1559893424966" class="icon" style="" viewBox="0 0 1024 1024" version="1.1" xmlns="http://www.w3.org/2000/svg" p-id="4579" xmlns:xlink="http://www.w3.org/1999/xlink" width="200" height="200"><defs><style type="text/css"></style></defs><path d="M824.112484 958.445982 89.817632 958.445982c-8.705266 0-16.861016-4.111644-21.771863-11.30651-4.910846-7.17747-5.957689-16.238846-2.798742-24.359804l105.941867-272.227078L65.246003 378.304022c-2.403746-6.164397-2.403746-13.004175 0.017396-19.159362l109.667725-280.830013c3.948939-10.113335 13.70207-17.307178 24.554232-17.307178l734.294852 0c8.705266 0 16.861016 4.846378 21.771863 12.041244 4.928243 7.194866 5.957689 16.627702 2.798742 24.749684L852.426343 369.141338 958.350814 640.416741c2.403746 6.155187 2.403746 13.023618 0.017396 19.178805l-109.667725 282.186917C844.751546 951.930591 834.998415 958.445982 824.112484 958.445982zM128.381949 906.257366l677.683507 0 99.417267-256.050654L799.541879 378.925169c-2.403746-6.172583-2.403746-13.361309 0-19.534915l95.621824-245.171885L217.480196 114.218368 118.131491 368.475166l105.924471 272.403087c2.403746 6.147 2.403746 13.157671 0 19.304671L128.381949 906.257366z" p-id="4580" fill="#1296db"></path><path d="M679.039387 395.627573 309.804928 395.627573c-14.560624 0-26.373671-11.525498-26.373671-26.094308s11.813047-26.094308 26.373671-26.094308L679.039387 343.438956c14.560624 0 26.373671 11.525498 26.373671 26.094308S693.600011 395.627573 679.039387 395.627573z" p-id="4581" fill="#1296db"></path><path d="M538.378787 254.411317 327.388399 254.411317c-14.560624 0-26.373671-12.037151-26.373671-26.605961s11.813047-26.605961 26.373671-26.605961l210.990389 0c14.560624 0 26.373671 12.037151 26.373671 26.605961S552.939411 254.411317 538.378787 254.411317z" p-id="4582" fill="#1296db"></path><path d="M766.951623 677.036777 380.13574 677.036777c-14.560624 0-26.373671-11.525498-26.373671-26.094308s11.813047-26.094308 26.373671-26.094308L766.951623 624.848161c14.560624 0 26.373671 11.525498 26.373671 26.094308S781.512247 677.036777 766.951623 677.036777z" p-id="4583" fill="#1296db"></path><path d="M538.378787 535.820522 327.388399 535.820522c-14.560624 0-26.373671-11.525498-26.373671-26.094308s11.813047-26.094308 26.373671-26.094308l210.990389 0c14.560624 0 26.373671 11.525498 26.373671 26.094308S552.939411 535.820522 538.378787 535.820522z" p-id="4584" fill="#1296db"></path><path d="M538.378787 817.229726 327.388399 817.229726c-14.560624 0-26.373671-11.533684-26.373671-26.094308s11.813047-26.094308 26.373671-26.094308l210.990389 0c14.560624 0 26.373671 11.533684 26.373671 26.094308S552.939411 817.229726 538.378787 817.229726z" p-id="4585" fill="#1296db"></path></svg>