<?xml version="1.0" standalone="no"?><!DOCTYPE svg PUBLIC "-//W3C//DTD SVG 1.1//EN" "http://www.w3.org/Graphics/SVG/1.1/DTD/svg11.dtd"><svg t="1559885893694" class="icon" style="" viewBox="0 0 1024 1024" version="1.1" xmlns="http://www.w3.org/2000/svg" p-id="1534" xmlns:xlink="http://www.w3.org/1999/xlink" width="200" height="200"><defs><style type="text/css"></style></defs><path d="M869.88497 131.179668c12.134365 0 22.385846 10.251481 22.385846 22.385846l0 716.359364c0 12.134365-10.251481 22.385846-22.385846 22.385846L153.526629 892.310725c-12.134365 0-22.385846-10.251481-22.385846-22.385846L131.140783 153.565515c0-12.134365 10.251481-22.385846 22.385846-22.385846L869.88497 131.179668M869.88497 64.021106 153.526629 64.021106c-49.249681 0-89.544409 40.294728-89.544409 89.544409l0 716.359364c0 49.249681 40.294728 89.544409 89.544409 89.544409l716.358341 0c49.248657 0 89.544409-40.295751 89.544409-89.544409L959.429379 153.565515C959.430402 104.315834 919.133627 64.021106 869.88497 64.021106L869.88497 64.021106z" p-id="1535" fill="#1296db"></path></svg>