<?xml version="1.0" standalone="no"?><!DOCTYPE svg PUBLIC "-//W3C//DTD SVG 1.1//EN" "http://www.w3.org/Graphics/SVG/1.1/DTD/svg11.dtd"><svg t="1559886085245" class="icon" style="" viewBox="0 0 1024 1024" version="1.1" xmlns="http://www.w3.org/2000/svg" p-id="3802" xmlns:xlink="http://www.w3.org/1999/xlink" width="200" height="200"><defs><style type="text/css"></style></defs><path d="M860.985276 546.484396 162.427346 546.484396c-19.038612 0-34.484396-15.434527-34.484396-34.484396 0-19.049868 15.445784-34.484396 34.484396-34.484396l698.55793 0c19.038612 0 34.484396 15.435551 34.484396 34.484396C895.469672 531.049868 880.023888 546.484396 860.985276 546.484396z" p-id="3803" fill="#1296db"></path><path d="M860.985276 260.911358 162.427346 260.911358c-19.038612 0-34.484396-15.435551-34.484396-34.484396s15.445784-34.484396 34.484396-34.484396l698.55793 0c19.038612 0 34.484396 15.435551 34.484396 34.484396S880.023888 260.911358 860.985276 260.911358z" p-id="3804" fill="#1296db"></path><path d="M860.985276 831.54885 162.427346 831.54885c-19.038612 0-34.484396-15.434527-34.484396-34.484396 0-19.049868 15.445784-34.484396 34.484396-34.484396l698.55793 0c19.038612 0 34.484396 15.434527 34.484396 34.484396C895.469672 816.113299 880.023888 831.54885 860.985276 831.54885z" p-id="3805" fill="#1296db"></path></svg>